<?xml version="1.0" encoding="utf-8"?>
<!-- Generator: Adobe Illustrator 19.2.0, SVG Export Plug-In . SVG Version: 6.00 Build 0)  -->
<svg version="1.1" id="Capa_1" xmlns="http://www.w3.org/2000/svg" xmlns:xlink="http://www.w3.org/1999/xlink" x="0px" y="0px"
	 viewBox="0 0 583 583" style="enable-background:new 0 0 583 583;" xml:space="preserve">
<g>
	<g id="Layer_1_159_">
		<g>
			<ellipse cx="211.6" cy="242.6" rx="16.8" ry="16.4"/>
			<ellipse cx="171.7" cy="301.7" rx="18.7" ry="18.3"/>
			<ellipse cx="292.3" cy="324.3" rx="23.9" ry="24.2"/>
			<ellipse cx="411.9" cy="301.5" rx="18" ry="18.1"/>
			<ellipse cx="370.5" cy="241.9" rx="17.2" ry="17.1"/>
			<path d="M426,217.1c-10.2-25.5-28-48.4-49.7-63.8c-12.8,34.4-47.2,58.6-85.4,58.6c-39.5,0-72.7-24.2-85.4-58.6
				c-21.7,16.6-39.5,38.2-49.7,65c-44.6,10.2-76.5,49.7-76.5,96.9c0,54.8,44.6,98.2,98.2,98.2c16.6,0,33.2-5.1,47.2-12.8
				c20.4,10.2,42.1,16.6,66.3,16.6h1.3c24.2,0,45.9-6.4,66.3-16.6c14,7.6,29.3,11.5,47.2,11.5c54.8,0,98.2-44.6,98.2-98.2
				C503.8,266.8,470.6,227.3,426,217.1z M171,317.8c-8.9,0-16.6-7.6-16.6-16.6s7.6-16.6,16.6-16.6s16.6,7.6,16.6,16.6
				S181.2,317.8,171,317.8z M211.8,257.9c-8.9,0-15.3-7.6-15.3-15.3c0-8.9,7.6-15.3,15.3-15.3c7.6,0,15.3,7.6,15.3,15.3
				C228.4,251.5,220.7,257.9,211.8,257.9z M292.1,347.1c-11.5,0-21.7-10.2-21.7-21.7s10.2-21.7,21.7-21.7s21.7,10.2,21.7,21.7
				C313.8,338.2,303.6,347.1,292.1,347.1z M371.2,257.9c-8.9,0-15.3-7.6-15.3-15.3c0-8.9,7.6-15.3,15.3-15.3
				c8.9,0,15.3,7.6,15.3,15.3C386.5,251.5,380.1,257.9,371.2,257.9z M412,317.8c-8.9,0-16.6-7.6-16.6-16.6s7.6-16.6,16.6-16.6
				c8.9,0,16.6,7.6,16.6,16.6S420.9,317.8,412,317.8z"/>
			<path d="M358.4,432.6c-20.4,7.6-43.4,12.8-66.3,12.8s-45.9-5.1-66.3-14c-14,6.4-30.6,8.9-47.2,8.9c-12.8,0-25.5-2.6-38.2-5.1
				l29.3,89.2c11.5,35.7,44.6,58.7,81.6,58.7h80.3c37,0,70.1-24.2,81.6-58.7l29.3-89.2c-11.5,3.8-24.2,5.1-38.2,5.1
				C389,441.5,372.5,437.7,358.4,432.6z"/>
			<path d="M289.6,106.2c-11.5,0-21.7-10.2-21.7-21.7c1.3-8.9-1.3-15.3-2.5-21.7c-21.7,10.2-37,31.9-37,57.4
				c0,34.4,28,62.5,62.5,62.5c34.4,0,62.5-28.1,62.5-62.5c0-29.3-19.1-53.5-45.9-59.9c1.3,7.6,2.5,15.3,2.5,24.2
				C311.3,96,302.3,106.2,289.6,106.2z"/>
			<path d="M229.7,14.4c0,0,53.6,14,53.6,68.8c0,3.8,3.8,7.7,7.6,7.7c3.8,0,7.6-3.8,7.6-7.7c0-66.3-63.8-82.9-63.8-82.9
				c-3.8-1.3-7.6,1.3-8.9,5.1C223.3,10.5,225.8,14.4,229.7,14.4z"/>
		</g>
	</g>
</g>
</svg>
